<svg width="32" height="32" viewBox="0 0 32 32" fill="none" xmlns="http://www.w3.org/2000/svg">
<path d="M30.9539 5.98633C30.9396 5.74168 30.836 5.5108 30.6627 5.33752C30.4894 5.16424 30.2585 5.06061 30.0139 5.04633C23.5439 4.67133 18.3489 6.63883 16.1164 10.3238C14.6414 12.7601 14.6439 15.7188 16.0964 18.5413C15.2695 19.5254 14.6653 20.6768 14.3251 21.9163L12.2914 19.8751C13.2689 17.8338 13.2314 15.7063 12.1664 13.9388C10.5164 11.2151 6.70762 9.75508 1.97887 10.0326C1.73423 10.0469 1.50334 10.1505 1.33006 10.3238C1.15678 10.4971 1.05316 10.7279 1.03887 10.9726C0.760119 15.7013 2.22137 19.5101 4.94512 21.1601C5.8439 21.7093 6.87679 22 7.93012 22.0001C8.95248 21.9874 9.95893 21.7452 10.8751 21.2913L14.0001 24.4163V28.0001C14.0001 28.2653 14.1055 28.5196 14.293 28.7072C14.4805 28.8947 14.7349 29.0001 15.0001 29.0001C15.2653 29.0001 15.5197 28.8947 15.7072 28.7072C15.8948 28.5196 16.0001 28.2653 16.0001 28.0001V24.3138C15.9956 22.7229 16.537 21.1786 17.5339 19.9388C18.82 20.611 20.2465 20.9708 21.6976 20.9888C23.1006 20.9934 24.4775 20.6101 25.6764 19.8813C29.3614 17.6513 31.3339 12.4563 30.9539 5.98633ZM5.97637 19.4501C4.05887 18.2888 2.97387 15.5401 3.00012 12.0001C6.54012 11.9701 9.28887 13.0588 10.4501 14.9763C11.0564 15.9763 11.1551 17.1426 10.7576 18.3438L7.70637 15.2926C7.51731 15.113 7.26556 15.0143 7.0048 15.0176C6.74403 15.021 6.49489 15.126 6.31049 15.3104C6.12609 15.4948 6.02102 15.744 6.01768 16.0048C6.01434 16.2655 6.113 16.5173 6.29262 16.7063L9.34387 19.7576C8.14262 20.1551 6.97762 20.0563 5.97637 19.4501ZM24.6401 18.1726C22.9651 19.1863 20.9964 19.2638 18.9964 18.4226L25.7076 11.7101C25.8872 11.521 25.9859 11.2693 25.9826 11.0085C25.9792 10.7477 25.8742 10.4986 25.6898 10.3142C25.5053 10.1298 25.2562 10.0247 24.9954 10.0214C24.7347 10.018 24.4829 10.1167 24.2939 10.2963L17.5814 17.0001C16.7364 15.0001 16.8126 13.0301 17.8314 11.3563C19.5739 8.48133 23.7064 6.87883 28.9976 7.00258C29.1176 12.2926 27.5176 16.4301 24.6401 18.1726Z" fill="white"/>
</svg>
