<svg width="32" height="32" viewBox="0 0 32 32" fill="none" xmlns="http://www.w3.org/2000/svg">
<path fill-rule="evenodd" clip-rule="evenodd" d="M27.8987 15.6665H24.3067C22.408 15.6665 20.9987 17.0785 20.9987 18.6665C20.9987 20.2545 22.408 21.6665 24.3053 21.6665H27.9293C28.204 21.6492 28.3227 21.4638 28.332 21.3518V15.9812C28.3227 15.8692 28.204 15.6838 27.9293 15.6678L27.8987 15.6665ZM27.8 13.6665C27.888 13.6665 27.9733 13.6665 28.0533 13.6718C29.2133 13.7425 30.2413 14.6185 30.328 15.8425C30.3333 15.9225 30.3333 16.0092 30.3333 16.0892V21.2438C30.3333 21.3238 30.3333 21.4105 30.328 21.4905C30.2413 22.7145 29.2133 23.5905 28.052 23.6625C27.9733 23.6665 27.888 23.6665 27.7987 23.6665H24.308C21.448 23.6665 19 21.4958 19 18.6665C19 15.8372 21.448 13.6665 24.3067 13.6665H27.7773H27.8Z" fill="white"/>
<path d="M25.3334 18.6668C25.3334 19.0205 25.1929 19.3596 24.9429 19.6096C24.6928 19.8597 24.3537 20.0002 24.0001 20.0002C23.6465 20.0002 23.3073 19.8597 23.0573 19.6096C22.8072 19.3596 22.6667 19.0205 22.6667 18.6668C22.6667 18.3132 22.8072 17.9741 23.0573 17.724C23.3073 17.474 23.6465 17.3335 24.0001 17.3335C24.3537 17.3335 24.6928 17.474 24.9429 17.724C25.1929 17.9741 25.3334 18.3132 25.3334 18.6668Z" fill="white"/>
<path fill-rule="evenodd" clip-rule="evenodd" d="M27.8001 13.6668C28.1826 13.6524 28.5633 13.7253 28.9134 13.8802C28.7707 11.7388 28.3774 10.0882 27.1454 8.85482C26.1467 7.85749 24.8814 7.41482 23.3187 7.20416L23.2627 7.19749C23.2488 7.18691 23.2346 7.17668 23.2201 7.16682L18.2387 3.86416C17.3747 3.30026 16.3652 3 15.3334 3C14.3016 3 13.2921 3.30026 12.4281 3.86416L7.44808 7.16682C7.43315 7.17666 7.41848 7.18689 7.40408 7.19749L7.34808 7.20416C5.78542 7.41482 4.52008 7.85749 3.52141 8.85482C2.52408 9.85349 2.08141 11.1188 1.87075 12.6815C1.66675 14.2015 1.66675 16.1415 1.66675 18.5922V18.7415C1.66675 21.1922 1.66675 23.1335 1.87075 24.6522C2.08141 26.2148 2.52408 27.4802 3.52141 28.4788C4.52008 29.4762 5.78542 29.9188 7.34808 30.1295C8.86808 30.3335 10.8081 30.3335 13.2587 30.3335H17.4081C19.8587 30.3335 21.8001 30.3335 23.3187 30.1295C24.8814 29.9188 26.1467 29.4762 27.1454 28.4788C28.3774 27.2455 28.7707 25.5948 28.9134 23.4522C28.6441 23.5722 28.3534 23.6442 28.0521 23.6628C27.9734 23.6668 27.8881 23.6668 27.7987 23.6668H26.8907C26.7387 25.4562 26.3961 26.4002 25.7307 27.0642C25.1667 27.6282 24.3934 27.9668 23.0521 28.1468C21.6827 28.3308 19.8761 28.3335 17.3334 28.3335H13.3334C10.7907 28.3335 8.98541 28.3308 7.61341 28.1468C6.27342 27.9668 5.50008 27.6282 4.93608 27.0642C4.37208 26.5002 4.03341 25.7268 3.85342 24.3855C3.66941 23.0162 3.66675 21.2095 3.66675 18.6668C3.66675 16.1242 3.66941 14.3188 3.85342 12.9468C4.03341 11.6068 4.37208 10.8335 4.93608 10.2695C5.50008 9.70549 6.27341 9.36682 7.61475 9.18682C8.98541 9.00282 10.7907 9.00016 13.3334 9.00016H17.3334C19.8761 9.00016 21.6828 9.00282 23.0534 9.18682C24.3934 9.36682 25.1667 9.70549 25.7307 10.2695C26.3961 10.9335 26.7387 11.8788 26.8907 13.6668H27.7774H27.8001ZM13.2587 7.00016H17.4081C18.0974 7.00016 18.7454 7.00016 19.3547 7.00416L17.1334 5.53082C16.0667 4.82416 14.6001 4.82416 13.5334 5.53082L11.3107 7.00416C11.9214 7.00016 12.5694 7.00016 13.2574 7.00016" fill="white"/>
<path d="M8 12.3335C7.73478 12.3335 7.48043 12.4389 7.29289 12.6264C7.10536 12.8139 7 13.0683 7 13.3335C7 13.5987 7.10536 13.8531 7.29289 14.0406C7.48043 14.2281 7.73478 14.3335 8 14.3335H13.3333C13.5985 14.3335 13.8529 14.2281 14.0404 14.0406C14.228 13.8531 14.3333 13.5987 14.3333 13.3335C14.3333 13.0683 14.228 12.8139 14.0404 12.6264C13.8529 12.4389 13.5985 12.3335 13.3333 12.3335H8Z" fill="white"/>
<path d="M25.3334 18.6668C25.3334 19.0205 25.1929 19.3596 24.9429 19.6096C24.6928 19.8597 24.3537 20.0002 24.0001 20.0002C23.6465 20.0002 23.3073 19.8597 23.0573 19.6096C22.8072 19.3596 22.6667 19.0205 22.6667 18.6668C22.6667 18.3132 22.8072 17.9741 23.0573 17.724C23.3073 17.474 23.6465 17.3335 24.0001 17.3335C24.3537 17.3335 24.6928 17.474 24.9429 17.724C25.1929 17.9741 25.3334 18.3132 25.3334 18.6668Z" fill="white"/>
</svg>
